<mxfile host="Electron" modified="2024-10-16T13:26:50.093Z" agent="Mozilla/5.0 (Windows NT 10.0; Win64; x64) AppleWebKit/537.36 (KHTML, like Gecko) draw.io/24.6.4 Chrome/124.0.6367.207 Electron/30.0.6 Safari/537.36" etag="YuZkAK5TW3Pl5QG9PwMf" version="24.6.4" type="device">
  <diagram name="第 1 页" id="MD4ULTAr9BVNxQDFDa3_">
    <mxGraphModel dx="1102" dy="705" grid="1" gridSize="10" guides="1" tooltips="1" connect="1" arrows="1" fold="1" page="1" pageScale="1" pageWidth="1654" pageHeight="1169" math="0" shadow="0">
      <root>
        <mxCell id="0" />
        <mxCell id="1" parent="0" />
        <mxCell id="GPNbKcS-52rP5B-6LQ2z-7" value="" style="edgeStyle=orthogonalEdgeStyle;rounded=0;orthogonalLoop=1;jettySize=auto;html=1;" edge="1" parent="1" source="GPNbKcS-52rP5B-6LQ2z-1" target="GPNbKcS-52rP5B-6LQ2z-6">
          <mxGeometry relative="1" as="geometry" />
        </mxCell>
        <mxCell id="GPNbKcS-52rP5B-6LQ2z-1" value="董事会" style="rounded=0;whiteSpace=wrap;html=1;fontSize=30;" vertex="1" parent="1">
          <mxGeometry x="480" y="50" width="150" height="60" as="geometry" />
        </mxCell>
        <mxCell id="GPNbKcS-52rP5B-6LQ2z-9" value="" style="edgeStyle=orthogonalEdgeStyle;rounded=0;orthogonalLoop=1;jettySize=auto;html=1;" edge="1" parent="1" source="GPNbKcS-52rP5B-6LQ2z-3" target="GPNbKcS-52rP5B-6LQ2z-5">
          <mxGeometry relative="1" as="geometry" />
        </mxCell>
        <mxCell id="GPNbKcS-52rP5B-6LQ2z-3" value="中层管理人员" style="rounded=0;whiteSpace=wrap;html=1;fontSize=30;" vertex="1" parent="1">
          <mxGeometry x="480" y="250" width="150" height="80" as="geometry" />
        </mxCell>
        <mxCell id="GPNbKcS-52rP5B-6LQ2z-10" value="" style="edgeStyle=orthogonalEdgeStyle;rounded=0;orthogonalLoop=1;jettySize=auto;html=1;" edge="1" parent="1" source="GPNbKcS-52rP5B-6LQ2z-4" target="GPNbKcS-52rP5B-6LQ2z-5">
          <mxGeometry relative="1" as="geometry" />
        </mxCell>
        <mxCell id="GPNbKcS-52rP5B-6LQ2z-4" value="总监" style="rounded=0;whiteSpace=wrap;html=1;fontSize=30;" vertex="1" parent="1">
          <mxGeometry x="480" y="350" width="150" height="60" as="geometry" />
        </mxCell>
        <mxCell id="GPNbKcS-52rP5B-6LQ2z-14" value="" style="edgeStyle=orthogonalEdgeStyle;rounded=0;orthogonalLoop=1;jettySize=auto;html=1;" edge="1" parent="1" source="GPNbKcS-52rP5B-6LQ2z-5" target="GPNbKcS-52rP5B-6LQ2z-12">
          <mxGeometry relative="1" as="geometry" />
        </mxCell>
        <mxCell id="GPNbKcS-52rP5B-6LQ2z-15" style="edgeStyle=orthogonalEdgeStyle;rounded=0;orthogonalLoop=1;jettySize=auto;html=1;entryX=0.5;entryY=0;entryDx=0;entryDy=0;" edge="1" parent="1" source="GPNbKcS-52rP5B-6LQ2z-5" target="GPNbKcS-52rP5B-6LQ2z-11">
          <mxGeometry relative="1" as="geometry" />
        </mxCell>
        <mxCell id="GPNbKcS-52rP5B-6LQ2z-16" style="edgeStyle=orthogonalEdgeStyle;rounded=0;orthogonalLoop=1;jettySize=auto;html=1;entryX=0.5;entryY=0;entryDx=0;entryDy=0;" edge="1" parent="1" source="GPNbKcS-52rP5B-6LQ2z-5" target="GPNbKcS-52rP5B-6LQ2z-13">
          <mxGeometry relative="1" as="geometry" />
        </mxCell>
        <mxCell id="GPNbKcS-52rP5B-6LQ2z-5" value="项目经理" style="rounded=0;whiteSpace=wrap;html=1;fontSize=30;" vertex="1" parent="1">
          <mxGeometry x="480" y="440" width="150" height="60" as="geometry" />
        </mxCell>
        <mxCell id="GPNbKcS-52rP5B-6LQ2z-8" value="" style="edgeStyle=orthogonalEdgeStyle;rounded=0;orthogonalLoop=1;jettySize=auto;html=1;" edge="1" parent="1" source="GPNbKcS-52rP5B-6LQ2z-6" target="GPNbKcS-52rP5B-6LQ2z-3">
          <mxGeometry relative="1" as="geometry" />
        </mxCell>
        <mxCell id="GPNbKcS-52rP5B-6LQ2z-6" value="上层管理人员" style="rounded=0;whiteSpace=wrap;html=1;fontSize=30;" vertex="1" parent="1">
          <mxGeometry x="480" y="150" width="150" height="80" as="geometry" />
        </mxCell>
        <mxCell id="GPNbKcS-52rP5B-6LQ2z-11" value="项目成员" style="rounded=0;whiteSpace=wrap;html=1;fontSize=30;" vertex="1" parent="1">
          <mxGeometry x="310" y="525" width="150" height="60" as="geometry" />
        </mxCell>
        <mxCell id="GPNbKcS-52rP5B-6LQ2z-12" value="项目成员" style="rounded=0;whiteSpace=wrap;html=1;fontSize=30;" vertex="1" parent="1">
          <mxGeometry x="480" y="525" width="150" height="60" as="geometry" />
        </mxCell>
        <mxCell id="GPNbKcS-52rP5B-6LQ2z-13" value="项目成员" style="rounded=0;whiteSpace=wrap;html=1;fontSize=30;" vertex="1" parent="1">
          <mxGeometry x="650" y="525" width="150" height="60" as="geometry" />
        </mxCell>
      </root>
    </mxGraphModel>
  </diagram>
</mxfile>
